<svg height="512" viewBox="0 0 512 512" width="512" xmlns="http://www.w3.org/2000/svg"><circle cx="256" cy="257" fill="#fdb62f" r="232"/><path d="m272 282.994v-59.373a28.627 28.627 0 0 0 -28.627-28.627h-11.373v28.531a70.283 70.283 0 0 1 -10.017 36.163l-13.983 23.306-40 16v104h32l32 8h96v-128z" fill="#fec9a3"/><path d="m272 282.994v2.928a55.367 55.367 0 0 1 -34.968 51.648 8 8 0 0 0 5.937 14.86 71.286 71.286 0 0 0 45.031-66.508v-2.928z" fill="#efb58b"/><path d="m120 298.994h48v104h-48z" fill="#4298d1"/><path d="m263.562 70.528 5.838 17.961a8 8 0 0 0 7.609 5.528h18.885a8 8 0 0 1 4.7 14.472l-15.278 11.1a8 8 0 0 0 -2.906 8.944l5.835 17.961a8 8 0 0 1 -12.31 8.944l-15.279-11.1a8 8 0 0 0 -9.405 0l-15.278 11.1a8 8 0 0 1 -12.311-8.944l5.836-17.961a8 8 0 0 0 -2.906-8.944l-15.279-11.1a8 8 0 0 1 4.7-14.472h18.887a8 8 0 0 0 7.608-5.528l5.836-17.961a8 8 0 0 1 15.218 0z" fill="#fbd675"/><path d="m143.655 126.528 5.836 17.961a8 8 0 0 0 7.608 5.528h18.886a8 8 0 0 1 4.7 14.472l-15.279 11.1a8 8 0 0 0 -2.906 8.944l5.836 17.961a8 8 0 0 1 -12.311 8.944l-15.278-11.1a8 8 0 0 0 -9.405 0l-15.279 11.1a8 8 0 0 1 -12.31-8.944l5.835-17.961a8 8 0 0 0 -2.906-8.944l-15.278-11.1a8 8 0 0 1 4.7-14.472h18.885a8 8 0 0 0 7.609-5.528l5.836-17.961a8 8 0 0 1 15.221 0z" fill="#fbd675"/><path d="m383.655 126.528 5.836 17.961a8 8 0 0 0 7.608 5.528h18.886a8 8 0 0 1 4.7 14.472l-15.279 11.1a8 8 0 0 0 -2.906 8.944l5.836 17.961a8 8 0 0 1 -12.311 8.944l-15.278-11.1a8 8 0 0 0 -9.405 0l-15.279 11.1a8 8 0 0 1 -12.31-8.944l5.835-17.961a8 8 0 0 0 -2.906-8.944l-15.278-11.1a8 8 0 0 1 4.7-14.472h18.885a8 8 0 0 0 7.609-5.528l5.836-17.961a8 8 0 0 1 15.221 0z" fill="#fbd675"/><path d="m412.992 361a8 8 0 0 1 -6.812-12.18 175.64 175.64 0 0 0 25.82-91.82 179.013 179.013 0 0 0 -1.484-22.969 8 8 0 1 1 15.859-2.062 193.977 193.977 0 0 1 1.625 25.031 191.6 191.6 0 0 1 -28.18 100.18 7.99 7.99 0 0 1 -6.828 3.82z" fill="#ec9e15"/><path d="m86.617 337a8 8 0 0 1 -7.359-4.867 190.874 190.874 0 0 1 -15.258-75.133 193.977 193.977 0 0 1 1.625-25.031 8 8 0 1 1 15.859 2.062 179.013 179.013 0 0 0 -1.484 22.969 175 175 0 0 0 13.977 68.867 8 8 0 0 1 -7.36 11.133z" fill="#ec9e15"/><rect fill="#efb58b" height="32" rx="16" width="56" x="296" y="282.994"/><rect fill="#efb58b" height="32" rx="16" width="56" x="296" y="314.994"/><rect fill="#efb58b" height="32" rx="16" width="56" x="296" y="346.994"/><rect fill="#efb58b" height="32" rx="16" width="56" x="288" y="378.994"/><g fill="#fec9a3"><rect height="32" rx="16" width="56" x="304" y="282.994"/><rect height="32" rx="16" width="56" x="304" y="314.994"/><rect height="32" rx="16" width="56" x="304" y="346.994"/><rect height="32" rx="16" width="56" x="296" y="378.994"/></g></svg>